# xmcd
#
# Track frame offsets:
#  150
#  14707
#  27024
#  42397
#  57038
#  79687
#  94194
#  109068
#  121529
#  138960
#  159309
#  173925
#  191284
#  212602
#  227332
#
# Disc length: 3602 seconds
#
# Revision: 1
# Processed by: cddbd v1.5.1PL2 Copyright (c) Steve Scherf et al.
# Submitted via: Collectorz.com_Music_Collector 6.9
#
DISCID=b10e100f
DTITLE=Kerri Simpson - Sun Gonna Shine
DYEAR=2003
DGENRE=Blues
TTITLE0=Temperature
TTITLE1=How Long Blues
TTITLE2=We Will Fly Away
TTITLE3=Tip On Inn
TTITLE4=Angola Bound
TTITLE5=Gonna Make You Mine
TTITLE6=Honey In Rock
TTITLE7=How Come People Act Like That
TTITLE8=Call Sweet Baby's Name
TTITLE9=When The Blues Began
TTITLE10=Jesus Took Posession Over Judgement Day
TTITLE11=Moses
TTITLE12=Calling From Memphis
TTITLE13=All Night Long
TTITLE14=Haitian Freedom Song
EXTD=
EXTT0=
EXTT1=
EXTT2=
EXTT3=
EXTT4=
EXTT5=
EXTT6=
EXTT7=
EXTT8=
EXTT9=
EXTT10=
EXTT11=
EXTT12=
EXTT13=
EXTT14=
PLAYORDER=
